Coordinates
version=1
nRows=13
nColumns=36
inDegrees=yes

Units are S.I. units (second, meters, Newtons, ...)
If the header above contains a line with 'inDegrees', this indicates whether rotational values are in degrees (yes) or radians (no).

endheader
time	pelvis_tilt	pelvis_list	pelvis_rotation	pelvis_tx	pelvis_ty	pelvis_tz	hip_flexion_r	hip_adduction_r	hip_rotation_r	knee_angle_r	knee_angle_r_beta	ankle_angle_r	subtalar_angle_r	mtp_angle_r	hip_flexion_l	hip_adduction_l	hip_rotation_l	knee_angle_l	knee_angle_l_beta	ankle_angle_l	subtalar_angle_l	mtp_angle_l	lumbar_extension	lumbar_bending	lumbar_rotation	arm_flex_r	arm_add_r	arm_rot_r	elbow_flex_r	pro_sup_r	arm_flex_l	arm_add_l	arm_rot_l	elbow_flex_l	pro_sup_l
      0.00000000	      3.76180688	     -2.50881316	      0.00265981	     -0.87832192	      1.30786895	     -0.09787832	     -4.42049715	      0.03902992	     -8.75651171	      7.94919895	      0.13873969	     -0.10440011	    -15.88302163	     -5.75076688	     -8.06373750	     -5.20894902	     -2.12701858	      3.56169360	      0.06216328	      6.01874531	     -2.22477187	     -5.75076688	    -19.90384020	      2.60062546	      0.47256241	     17.00323128	     -7.00976913	     20.26134889	     36.64732664	     78.83126276	     12.21066921	     -5.00332759	     16.39515721	     41.90592300	     74.70436652
      0.00416670	      2.40316946	     -1.88415502	      0.27356112	     -0.87698663	      1.30519210	     -0.09751903	     -2.67296989	     -0.30047723	     -8.72415516	      9.05715727	      0.15807722	      2.68464284	    -14.76176320	     -6.44366123	     -5.92248652	     -4.18342460	     -0.31540374	      4.10927212	      0.07172033	      6.49002095	     -1.38804083	     -6.44366123	    -18.42010782	      2.04488421	      0.33685068	     16.25899994	     -5.75185733	     15.13441632	     35.81195934	     85.07151365	     12.33635874	     -3.96859577	     12.36570731	     40.97557757	     75.83427174
      0.00833330	      2.05970443	     -1.22455263	      0.21049068	     -0.87780255	      1.31311278	     -0.09529787	     -2.65801041	     -0.74385716	     -9.57515897	      8.10111293	      0.14139109	      2.67259053	    -14.34476663	     -6.47452127	     -5.74488973	     -3.64122801	     -0.17441351	      3.69132063	      0.06442570	      6.00665950	     -1.41573050	     -6.47452127	    -18.48163281	      0.97985567	      0.51966869	     16.72637170	     -5.13199175	     14.48661145	     34.95271573	     85.13902973	     13.11596688	     -4.62342236	     13.22863348	     40.79913848	     75.81128159
      0.01250000	      3.06190329	     -1.09543871	      0.46277942	     -0.87658229	      1.31109814	     -0.09571208	     -4.08366608	     -0.77078687	     -9.90454552	      7.45617360	      0.13013478	      2.60531838	    -14.35084325	     -6.46894737	     -7.34000306	     -3.53508826	      0.34044274	      2.82234309	      0.04925918	      5.45049884	     -2.16755683	     -6.46894737	    -19.96750272	      0.73813640	      0.91687321	     16.80794409	     -5.18362973	     14.03407242	     35.63260726	     85.01174695	     14.02717251	     -5.55141391	     15.31109864	     41.88818159	     76.08992688
      0.01666670	      3.67880384	     -1.00543595	      0.70098208	     -0.87692029	      1.31163413	     -0.09559354	     -4.97977080	     -0.68707565	     -9.98482085	      7.01639739	      0.12245924	      2.81841273	    -14.19857992	     -6.52097506	     -8.23494414	     -3.45260907	      0.84104050	      2.42369339	      0.04230143	      5.32535614	     -2.85361211	     -6.52097506	    -20.86237015	      0.62531038	      0.90335858	     16.78378552	     -5.15258793	     13.94806975	     36.34555515	     84.62949693	     14.51302776	     -6.07396730	     16.66824090	     42.74338422	     76.43722767
      0.02083330	      4.21362930	     -0.98119492	      0.95155585	     -0.87819798	      1.31812977	     -0.09555987	     -5.81779594	     -0.53737296	    -10.18159445	      6.30624557	      0.11006475	      2.57339114	    -14.11705391	     -6.54187160	     -8.91948338	     -3.48061282	      1.17797422	      2.01178206	      0.03511222	      4.83423165	     -3.53337453	     -6.54187160	    -21.71014491	      0.63833169	      0.88765841	     16.82183977	     -5.18948944	     13.87983868	     36.83363506	     84.52525777	     14.90322501	     -6.34894740	     17.96075598	     43.37859048	     77.14876096
      0.02500000	      4.47778296	     -0.98986315	      1.12586595	     -0.87819518	      1.31468532	     -0.09545948	     -6.28181329	     -0.41787998	    -10.36223093	      5.85611877	      0.10220855	      2.24973747	    -14.45880015	     -6.56841276	     -9.21961356	     -3.53245347	      1.48879982	      1.82135349	      0.03178862	      4.68553742	     -3.93133523	     -6.56841276	    -22.09180401	      0.62457562	      1.09120302	     16.49259545	     -5.41024731	     13.89072234	     37.72634656	     82.99694776	     15.24589665	     -6.65087909	     19.89270915	     44.05270984	     78.05935012
      0.02916670	      4.68265536	     -1.07314051	      1.33348672	     -0.87845337	      1.31974347	     -0.09325960	     -6.65686918	     -0.17994126	    -10.69469123	      5.45306685	      0.09517397	      1.81553481	    -14.57097148	     -6.58163965	     -9.40338604	     -3.69420163	      1.79099174	      1.73512519	      0.03028365	      4.56771465	     -4.08230888	     -6.58163965	    -22.46235310	      0.71314475	      0.99964533	     16.45031479	     -5.31801151	     13.82560932	     37.89476935	     82.91307778	     15.34924146	     -6.55268881	     20.14575123	     44.26825605	     78.50183467
      0.03333330	      4.89378992	     -1.11141330	      1.46987891	     -0.87776183	      1.31310703	     -0.09455109	     -7.04973105	     -0.06060349	    -10.71716813	      5.08029899	      0.08866794	      1.66739324	    -14.89766106	     -6.88465067	     -9.61496169	     -3.80343122	      2.05854020	      1.68284041	      0.02937111	      4.52120658	     -4.56751282	     -6.88465067	    -22.75765336	      0.74827592	      0.97138932	     16.22513597	     -5.35964335	     13.80388428	     38.74571801	     81.65612061	     15.24975017	     -6.57931651	     19.95852215	     45.04368999	     85.17699179
      0.03750000	      4.94667651	     -1.07570064	      1.62658528	     -0.87862753	      1.31686616	     -0.09453585	     -7.29414052	     -0.03656265	    -10.63250044	      4.69512533	      0.08194540	      1.43787972	    -15.01688135	     -7.04708960	     -9.66792252	     -3.79725697	      2.37538504	      1.58125259	      0.02759806	      4.34819692	     -4.86202551	     -7.04708960	    -22.78448810	      0.74043460	      0.99343233	     16.10305696	     -5.47776001	     14.19011130	     39.06677381	     79.43417527	     15.48691253	     -6.67091475	     21.31637205	     45.16366371	     82.99011417
      0.04166670	      5.07058269	     -1.01644575	      1.84346048	     -0.87672201	      1.32529470	     -0.09312202	     -7.75355401	      0.02270226	    -10.78224936	      4.17269117	      0.07282720	      1.20059911	    -14.40949361	     -7.05860167	     -9.83414009	     -3.82176974	      2.49229472	      1.47375551	      0.02572189	      4.02577370	     -4.74469982	     -7.05860167	    -22.94987747	      0.72102012	      0.81899980	     15.97143658	     -5.34793017	     14.08389020	     39.08630075	     79.57837630	     15.49615732	     -6.71422200	     21.68924980	     45.34323802	     83.42773134
      0.04583330	      5.11753422	     -0.99125159	      1.94097289	     -0.87828889	      1.32334043	     -0.09220476	     -7.94228089	      0.10524752	    -10.86812845	      3.89013334	      0.06789564	      1.02186076	    -14.10648711	     -7.24697949	     -9.86999454	     -3.86608968	      2.53090302	      1.45589952	      0.02541024	      3.79540453	     -4.55401845	     -7.24697949	    -23.07471340	      0.66597715	      0.88286330	     15.81107333	     -5.21197374	     13.51208361	     39.32410000	     80.76641407	     15.73987561	     -6.69177182	     21.96626771	     45.42739478	     86.84475182
      0.05000000	      5.27861802	     -0.94077105	      2.15681042	     -0.87742309	      1.32628752	     -0.09225463	     -8.33742963	      0.17906834	    -10.94748887	      3.54087572	      0.06179994	      0.75340378	    -13.71004311	     -7.37801971	    -10.05808951	     -3.90060815	      2.61744713	      1.37692580	      0.02403189	      3.50071967	     -4.37980237	     -7.37801971	    -23.29897428	      0.64231192	      0.78261481	     15.76805548	     -5.07700263	     13.37719113	     39.39453804	     80.70387698	     15.87370093	     -6.73205575	     22.26371878	     45.58148034	     87.32405326
